<svg width="50" height="50" viewBox="0 0 50 50" fill="none" xmlns="http://www.w3.org/2000/svg">
<path d="M47.9166 8.33325V12.4999H41.6666V18.7499H37.4999V12.4999H31.2499V8.33325H37.4999V2.08325H41.6666V8.33325H47.9166ZM30.2083 22.9166C31.0373 22.9163 31.8323 22.5867 32.4184 22.0003C33.0044 21.4138 33.3335 20.6186 33.3333 19.7895C33.333 18.9604 33.0034 18.1654 32.4169 17.5794C31.8305 16.9933 31.0352 16.6642 30.2062 16.6645C29.7957 16.6646 29.3892 16.7456 29.01 16.9029C28.6307 17.0601 28.2862 17.2905 27.996 17.5808C27.7058 17.8712 27.4757 18.2159 27.3187 18.5952C27.1618 18.9745 27.081 19.3811 27.0812 19.7916C27.0813 20.2021 27.1623 20.6086 27.3195 20.9878C27.4767 21.367 27.7071 21.7115 27.9975 22.0017C28.2879 22.2919 28.6326 22.5221 29.0119 22.679C29.3912 22.836 29.7977 22.9167 30.2083 22.9166ZM37.4999 29.6541L36.4312 28.4666C36.0404 28.0315 35.5624 27.6835 35.0283 27.4453C34.4942 27.2071 33.916 27.084 33.3312 27.084C32.7464 27.084 32.1681 27.2071 31.634 27.4453C31.0999 27.6835 30.6219 28.0315 30.2312 28.4666L28.8645 29.9895L18.7499 18.7499L12.4999 25.6937V12.4999H27.0833V8.33325H12.4999C11.3948 8.33325 10.335 8.77224 9.55364 9.55364C8.77224 10.335 8.33325 11.3948 8.33325 12.4999V37.4999C8.33325 38.605 8.77224 39.6648 9.55364 40.4462C10.335 41.2276 11.3948 41.6666 12.4999 41.6666H37.4999C38.605 41.6666 39.6648 41.2276 40.4462 40.4462C41.2276 39.6648 41.6666 38.605 41.6666 37.4999V22.9166H37.4999V29.6541Z" fill="#FF4D6D"/>
</svg>
