<svg width="50" height="50" viewBox="0 0 50 50" fill="none" xmlns="http://www.w3.org/2000/svg">
<path d="M23.3125 2.83325L8.72917 9.31242C7.22917 9.97908 6.25 11.4791 6.25 13.1249V22.9166C6.25 34.4791 14.25 45.2916 25 47.9166C35.75 45.2916 43.75 34.4791 43.75 22.9166V13.1249C43.75 11.4791 42.7708 9.97908 41.2708 9.31242L26.6875 2.83325C25.625 2.35409 24.375 2.35409 23.3125 2.83325ZM19.3542 33.9374L13.9583 28.5416C13.7655 28.3487 13.6125 28.1197 13.5081 27.8677C13.4037 27.6157 13.35 27.3456 13.35 27.0728C13.35 26.8001 13.4037 26.53 13.5081 26.278C13.6125 26.0259 13.7655 25.797 13.9583 25.6041C14.1512 25.4112 14.3802 25.2582 14.6322 25.1538C14.8842 25.0494 15.1543 24.9957 15.4271 24.9957C15.6999 24.9957 15.97 25.0494 16.222 25.1538C16.474 25.2582 16.703 25.4112 16.8958 25.6041L20.8333 29.5208L33.0833 17.2708C33.2762 17.0779 33.5052 16.9249 33.7572 16.8205C34.0092 16.7161 34.2793 16.6624 34.5521 16.6624C34.8249 16.6624 35.095 16.7161 35.347 16.8205C35.599 16.9249 35.828 17.0779 36.0208 17.2708C36.2137 17.4636 36.3667 17.6926 36.4711 17.9446C36.5755 18.1966 36.6292 18.4667 36.6292 18.7395C36.6292 19.0123 36.5755 19.2824 36.4711 19.5344C36.3667 19.7864 36.2137 20.0154 36.0208 20.2083L22.2917 33.9374C22.0989 34.1306 21.87 34.2838 21.618 34.3883C21.3659 34.4929 21.0958 34.5467 20.8229 34.5467C20.5501 34.5467 20.2799 34.4929 20.0279 34.3883C19.7758 34.2838 19.5469 34.1306 19.3542 33.9374Z" fill="#FF4D6D"/>
</svg>
