<svg width="50" height="50" viewBox="0 0 50 50" fill="none" xmlns="http://www.w3.org/2000/svg">
<path d="M45.3125 10.9375H4.6875C3.8587 10.9375 3.06384 11.2667 2.47779 11.8528C1.89174 12.4388 1.5625 13.2337 1.5625 14.0625V35.9375C1.5625 36.7663 1.89174 37.5612 2.47779 38.1472C3.06384 38.7333 3.8587 39.0625 4.6875 39.0625H45.3125C46.1413 39.0625 46.9362 38.7333 47.5222 38.1472C48.1083 37.5612 48.4375 36.7663 48.4375 35.9375V14.0625C48.4375 13.2337 48.1083 12.4388 47.5222 11.8528C46.9362 11.2667 46.1413 10.9375 45.3125 10.9375ZM14.6484 35.9375L4.6875 27.4023V22.5977L14.6484 14.0625H35.3516L45.3125 22.5977V27.4023L35.3516 35.9375H14.6484ZM32.8125 25C32.8125 26.5452 32.3543 28.0556 31.4959 29.3404C30.6374 30.6252 29.4173 31.6265 27.9897 32.2178C26.5622 32.8091 24.9913 32.9638 23.4759 32.6624C21.9604 32.3609 20.5683 31.6169 19.4757 30.5243C18.3831 29.4317 17.6391 28.0396 17.3376 26.5241C17.0362 25.0087 17.1909 23.4378 17.7822 22.0103C18.3735 20.5827 19.3748 19.3626 20.6596 18.5041C21.9444 17.6457 23.4548 17.1875 25 17.1875C27.072 17.1875 29.0591 18.0106 30.5243 19.4757C31.9894 20.9409 32.8125 22.928 32.8125 25Z" fill="#FF4D6D"/>
</svg>
