<svg width="50" height="50" viewBox="0 0 50 50" fill="none" xmlns="http://www.w3.org/2000/svg">
<path d="M25 14.8439C26.6997 14.8439 28.3612 15.3479 29.7745 16.2922C31.1877 17.2365 32.2892 18.5786 32.9396 20.1489C33.5901 21.7192 33.7603 23.4471 33.4287 25.1142C33.0971 26.7812 32.2786 28.3125 31.0767 29.5143C29.8749 30.7162 28.3436 31.5346 26.6766 31.8662C25.0096 32.1978 23.2817 32.0276 21.7113 31.3772C20.141 30.7268 18.7989 29.6253 17.8546 28.212C16.9103 26.7988 16.4063 25.1373 16.4063 23.4376C16.4063 21.1584 17.3117 18.9726 18.9233 17.3609C20.535 15.7493 22.7208 14.8439 25 14.8439ZM34.375 12.5001H37.5V15.6251C37.5 16.0395 37.6647 16.4369 37.9577 16.73C38.2507 17.023 38.6481 17.1876 39.0625 17.1876C39.4769 17.1876 39.8744 17.023 40.1674 16.73C40.4604 16.4369 40.625 16.0395 40.625 15.6251V12.5001H43.75C44.1644 12.5001 44.5619 12.3355 44.8549 12.0425C45.1479 11.7494 45.3125 11.352 45.3125 10.9376C45.3125 10.5232 45.1479 10.1258 44.8549 9.83276C44.5619 9.53973 44.1644 9.37511 43.75 9.37511H40.625V6.25011C40.625 5.83571 40.4604 5.43828 40.1674 5.14526C39.8744 4.85223 39.4769 4.68761 39.0625 4.68761C38.6481 4.68761 38.2507 4.85223 37.9577 5.14526C37.6647 5.43828 37.5 5.83571 37.5 6.25011V9.37511H34.375C33.9606 9.37511 33.5632 9.53973 33.2702 9.83276C32.9772 10.1258 32.8125 10.5232 32.8125 10.9376C32.8125 11.352 32.9772 11.7494 33.2702 12.0425C33.5632 12.3355 33.9606 12.5001 34.375 12.5001ZM43.2813 20.5079C43.0777 20.5365 42.8818 20.6054 42.7052 20.7107C42.5286 20.816 42.3748 20.9556 42.2529 21.1211C42.131 21.2867 42.0434 21.475 41.9953 21.6749C41.9471 21.8748 41.9395 22.0823 41.9727 22.2853C42.1129 23.1835 42.1847 24.091 42.1875 25.0001C42.1933 29.2059 40.6497 33.2664 37.8516 36.4064C36.5868 34.5921 34.9569 33.062 33.0664 31.9142C30.8958 33.9937 28.006 35.1546 25 35.1546C21.9941 35.1546 19.1042 33.9937 16.9336 31.9142C15.0431 33.062 13.4133 34.5921 12.1485 36.4064C9.95084 33.9292 8.51561 30.8699 8.01539 27.5964C7.51517 24.3229 7.97127 20.9745 9.32882 17.9541C10.6864 14.9336 12.8876 12.3697 15.6677 10.5705C18.4478 8.7714 21.6885 7.8137 25 7.81261C25.9091 7.81545 26.8167 7.88727 27.7149 8.02746C28.1199 8.08296 28.5305 7.97753 28.8587 7.73379C29.1869 7.49004 29.4064 7.12739 29.4703 6.72362C29.5342 6.31985 29.4373 5.90713 29.2004 5.57397C28.9635 5.24081 28.6055 5.01376 28.2032 4.94152C27.1443 4.76888 26.0729 4.68395 25 4.68761C20.9071 4.68903 16.9101 5.92687 13.5328 8.23892C10.1554 10.551 7.55532 13.8294 6.07319 17.6445C4.59105 21.4596 4.29602 25.6335 5.22675 29.6192C6.15749 33.6049 8.27057 37.2164 11.2891 39.9806L11.543 40.215C15.2564 43.4992 20.0427 45.3121 25 45.3121C29.9574 45.3121 34.7437 43.4992 38.4571 40.215L38.711 39.9806C40.7932 38.0805 42.456 35.7666 43.5927 33.187C44.7295 30.6075 45.3152 27.819 45.3125 25.0001C45.3162 23.9272 45.2313 22.8559 45.0586 21.797C45.0278 21.5951 44.9571 21.4013 44.8508 21.227C44.7445 21.0526 44.6046 20.901 44.4393 20.7811C44.2739 20.6612 44.0865 20.5753 43.8877 20.5284C43.6889 20.4815 43.4828 20.4746 43.2813 20.5079Z" fill="#FF4D6D"/>
</svg>
