<svg width="50" height="50" viewBox="0 0 50 50" fill="none" xmlns="http://www.w3.org/2000/svg">
<path d="M14.5834 22.9167C13.3523 22.9167 12.1332 22.6743 10.9958 22.2031C9.85833 21.732 8.82484 21.0414 7.95429 20.1709C7.08374 19.3003 6.39318 18.2668 5.92204 17.1294C5.45091 15.992 5.20841 14.7729 5.20841 13.5417C5.20841 12.3106 5.45091 11.0915 5.92204 9.95409C6.39318 8.81666 7.08374 7.78317 7.95429 6.91262C8.82484 6.04207 9.85833 5.35152 10.9958 4.88038C12.1332 4.40924 13.3523 4.16675 14.5834 4.16675C17.0698 4.16675 19.4544 5.15447 21.2125 6.91262C22.9707 8.67077 23.9584 11.0553 23.9584 13.5417C23.9584 16.0282 22.9707 18.4127 21.2125 20.1709C19.4544 21.929 17.0698 22.9167 14.5834 22.9167ZM36.4584 31.2501C34.2483 31.2501 32.1287 30.3721 30.5659 28.8093C29.0031 27.2465 28.1251 25.1269 28.1251 22.9167C28.1251 20.7066 29.0031 18.587 30.5659 17.0242C32.1287 15.4614 34.2483 14.5834 36.4584 14.5834C38.6686 14.5834 40.7882 15.4614 42.351 17.0242C43.9138 18.587 44.7917 20.7066 44.7917 22.9167C44.7917 25.1269 43.9138 27.2465 42.351 28.8093C40.7882 30.3721 38.6686 31.2501 36.4584 31.2501ZM36.4584 33.3334C38.9448 33.3334 41.3294 34.3211 43.0875 36.0793C44.8457 37.8374 45.8334 40.222 45.8334 42.7084V43.7501H27.0834V42.7084C27.0834 40.222 28.0711 37.8374 29.8293 36.0793C31.5874 34.3211 33.972 33.3334 36.4584 33.3334ZM14.5834 25.0001C15.9514 25.0001 17.3059 25.2695 18.5697 25.793C19.8335 26.3165 20.9818 27.0838 21.9491 28.0511C22.9164 29.0183 23.6837 30.1667 24.2072 31.4305C24.7306 32.6943 25.0001 34.0488 25.0001 35.4167V43.7501H4.16675V35.4167C4.16675 32.6541 5.26421 30.0046 7.21772 28.0511C9.17122 26.0975 11.8207 25.0001 14.5834 25.0001Z" fill="#FF4D6D"/>
</svg>
