<svg width="41" height="30" viewBox="0 0 41 30" fill="none" xmlns="http://www.w3.org/2000/svg">
<g clip-path="url(#clip0_27_104)">
<path d="M10.0311 29.8522V14.4776L5.263 10.1155L0.987305 7.69482V27.139C0.987305 28.6403 2.20363 29.8522 3.70052 29.8522H10.0311Z" fill="#4285F4"/>
<path d="M31.7363 29.8523H38.067C39.5683 29.8523 40.7802 28.6358 40.7802 27.1391V7.69507L35.9373 10.4677L31.7363 14.4777V29.8523Z" fill="#34A853"/>
<path d="M10.0311 14.4778L9.38232 8.47053L10.0311 2.72095L20.8837 10.8604L31.7362 2.72095L32.462 8.16012L31.7362 14.4778L20.8837 22.6173L10.0311 14.4778Z" fill="#EA4335"/>
<path d="M31.7363 2.72078V14.4777L40.7802 7.69487V4.07731C40.7802 0.722128 36.9501 -1.19057 34.2688 0.82161L31.7363 2.72078Z" fill="#FBBC04"/>
<path d="M0.987305 7.69495L5.14674 10.8146L10.0311 14.4777V2.72085L7.4987 0.821681C4.81269 -1.19065 0.987305 0.722199 0.987305 4.07723V7.69479V7.69495Z" fill="#C5221F"/>
</g>
<defs>
<clipPath id="clip0_27_104">
<rect width="39.7927" height="30" fill="white" transform="translate(0.987305)"/>
</clipPath>
</defs>
</svg>
