<svg width="30" height="30" viewBox="0 0 30 30" fill="none" xmlns="http://www.w3.org/2000/svg">
<g clip-path="url(#clip0_27_98)">
<path d="M0.635148 14.8204C0.634451 17.341 1.29306 19.8021 2.54538 21.9714L0.515381 29.3833L8.1005 27.3944C10.1984 28.5365 12.549 29.135 14.9377 29.1351H14.944C22.8295 29.1351 29.2484 22.7185 29.2518 14.8316C29.2533 11.0099 27.7663 7.41618 25.0647 4.71246C22.3635 2.00897 18.7711 0.519322 14.9434 0.517578C7.05701 0.517578 0.63852 6.93386 0.635265 14.8204" fill="url(#paint0_linear_27_98)"/>
<path d="M0.124419 14.8158C0.123605 17.4271 0.805814 19.9763 2.10279 22.2233L0 29.9008L7.85709 27.8407C10.022 29.021 12.4594 29.6434 14.9397 29.6443H14.946C23.1144 29.6443 29.764 22.9969 29.7674 14.8277C29.7688 10.8686 28.2284 7.1457 25.4302 4.34512C22.6317 1.54488 18.9108 0.00162791 14.946 0C6.77628 0 0.127674 6.64651 0.124419 14.8158ZM4.80349 21.8363L4.51012 21.3706C3.27686 19.4097 2.62593 17.1436 2.62686 14.8167C2.62953 8.02663 8.15558 2.50233 14.9507 2.50233C18.2414 2.50372 21.334 3.78651 23.66 6.11395C25.9859 8.44163 27.2658 11.5358 27.265 14.8267C27.262 21.6169 21.7358 27.1419 14.946 27.1419H14.9412C12.7303 27.1407 10.5621 26.547 8.67116 25.425L8.22116 25.1581L3.5586 26.3806L4.80349 21.8362V21.8363Z" fill="url(#paint1_linear_27_98)"/>
<path d="M11.2415 8.62189C10.9641 8.00526 10.6721 7.99282 10.4083 7.982C10.1922 7.9727 9.94526 7.9734 9.69852 7.9734C9.45154 7.9734 9.05026 8.06631 8.71107 8.43666C8.37154 8.80735 7.41479 9.70317 7.41479 11.5251C7.41479 13.3472 8.74189 15.1081 8.92689 15.3554C9.11212 15.6022 11.4889 19.4608 15.2531 20.9453C18.3814 22.1789 19.0181 21.9335 19.697 21.8717C20.3761 21.81 21.8882 20.9761 22.1967 20.1113C22.5054 19.2467 22.5054 18.5055 22.4128 18.3506C22.3203 18.1963 22.0733 18.1036 21.7029 17.9185C21.3325 17.7333 19.5118 16.8374 19.1724 16.7137C18.8328 16.5903 18.586 16.5286 18.339 16.8994C18.092 17.2697 17.3828 18.1036 17.1667 18.3506C16.9507 18.5982 16.7346 18.629 16.3643 18.4437C15.9937 18.2579 14.8011 17.8674 13.3861 16.6058C12.2851 15.6242 11.5419 14.412 11.3258 14.0412C11.1098 13.671 11.3027 13.4703 11.4884 13.2857C11.6548 13.1198 11.8589 12.8533 12.0442 12.6371C12.2289 12.4208 12.2905 12.2665 12.414 12.0196C12.5376 11.7724 12.4757 11.5561 12.3833 11.3708C12.2905 11.1856 11.5708 9.3541 11.2415 8.62189Z" fill="white"/>
</g>
<defs>
<linearGradient id="paint0_linear_27_98" x1="1437.34" y1="2887.09" x2="1437.34" y2="0.517578" gradientUnits="userSpaceOnUse">
<stop stop-color="#1FAF38"/>
<stop offset="1" stop-color="#60D669"/>
</linearGradient>
<linearGradient id="paint1_linear_27_98" x1="1488.37" y1="2990.08" x2="1488.37" y2="0" gradientUnits="userSpaceOnUse">
<stop stop-color="#F9F9F9"/>
<stop offset="1" stop-color="white"/>
</linearGradient>
<clipPath id="clip0_27_98">
<rect width="29.7674" height="30" fill="white"/>
</clipPath>
</defs>
</svg>
