<?xml version="1.0" encoding="UTF-8"?>
<svg id="Layer_2" data-name="Layer 2" xmlns="http://www.w3.org/2000/svg" viewBox="0 0 108.15 108.67">
  <defs>
    <style>
      .cls-1 {
        fill: #ffb287;
      }

      .cls-2 {
        fill: #ff9a9d;
      }
    </style>
  </defs>
  <g id="Layer_1-2" data-name="Layer 1">
    <g>
      <path class="cls-2" d="m61.13,59.23c.02.12-.13.2-.21.11L23.9,21.55c-.79-.8-.77-2.11.06-2.86,3.65-3.32,7.63-6.3,11.96-8.88,4.29-2.56,8.75-4.62,13.38-6.18,1.17-.4,2.43.33,2.63,1.56l9.19,54.05Z"/>
      <path class="cls-1" d="m57.11,62.92L5.07,52.43c-1.19-.24-1.88-1.46-1.5-2.61,1.54-4.69,3.58-9.22,6.13-13.56,2.31-3.94,4.95-7.6,7.86-10.98.76-.88,2.12-.9,2.93-.07l36.74,37.51c.09.09,0,.23-.11.21Z"/>
      <path class="cls-2" d="m52.9,67.42L2.66,79.63c-1.21.29-2.39-.57-2.47-1.81C.06,76.05,0,74.26,0,72.46c0-4.67.43-9.23,1.26-13.66.2-1.09,1.28-1.78,2.36-1.57l49.27,9.94c.13.03.13.21,0,.24Z"/>
      <path class="cls-1" d="m65.57,54.67c-.04.13-.22.11-.24-.02L56.73,3.56c-.18-1.06.51-2.09,1.57-2.29C62.66.43,67.14,0,71.72,0c2.62,0,5.2.14,7.74.41,1.25.13,2.08,1.37,1.72,2.57l-15.61,51.69Z"/>
      <path class="cls-2" d="m73.01,46.93L86.28,3.38c.3-1,1.39-1.61,2.4-1.36,6.69,1.63,12.51,3.93,18.51,7.56h0c1.11.67,1.3,2.21.38,3.13l-34.35,34.35c-.09.09-.25,0-.21-.12Z"/>
      <path class="cls-1" d="m8.99,107.63c-3.61-6.48-6.14-13.37-7.57-20.61-.21-1.04.46-2.06,1.5-2.31l42.68-10.37c.12-.03.21.12.12.21L12.17,108.09c-.94.94-2.53.71-3.18-.46Z"/>
    </g>
  </g>
</svg>