<svg width="30" height="30" viewBox="0 0 30 30" fill="none" xmlns="http://www.w3.org/2000/svg">
<path d="M26.25 12.5H15.8125C15.2976 11.0381 14.3417 9.77203 13.0767 8.87645C11.8117 7.98088 10.2999 7.49994 8.75 7.5C4.6125 7.5 1.25 10.8625 1.25 15C1.25 19.1375 4.6125 22.5 8.75 22.5C10.2999 22.5001 11.8117 22.0191 13.0767 21.1235C14.3417 20.228 15.2976 18.9619 15.8125 17.5H16.25L18.75 20L21.25 17.5L23.75 20L28.75 14.95L26.25 12.5ZM8.75 18.75C6.6875 18.75 5 17.0625 5 15C5 12.9375 6.6875 11.25 8.75 11.25C10.8125 11.25 12.5 12.9375 12.5 15C12.5 17.0625 10.8125 18.75 8.75 18.75Z" fill="#FF4D6D"/>
</svg>
