<svg width="30" height="30" viewBox="0 0 30 30" fill="none" xmlns="http://www.w3.org/2000/svg">
<g clip-path="url(#clip0_27_124)">
<path d="M26.25 12.5V23.75C26.25 24.413 25.9866 25.0489 25.5178 25.5178C25.0489 25.9866 24.413 26.25 23.75 26.25H6.25C5.58696 26.25 4.95107 25.9866 4.48223 25.5178C4.01339 25.0489 3.75 24.413 3.75 23.75V12.5H26.25ZM17.5 16.25H12.5C12.1685 16.25 11.8505 16.3817 11.6161 16.6161C11.3817 16.8505 11.25 17.1685 11.25 17.5C11.25 17.8315 11.3817 18.1495 11.6161 18.3839C11.8505 18.6183 12.1685 18.75 12.5 18.75H17.5C17.8315 18.75 18.1495 18.6183 18.3839 18.3839C18.6183 18.1495 18.75 17.8315 18.75 17.5C18.75 17.1685 18.6183 16.8505 18.3839 16.6161C18.1495 16.3817 17.8315 16.25 17.5 16.25ZM25 3.75C25.663 3.75 26.2989 4.01339 26.7678 4.48223C27.2366 4.95107 27.5 5.58696 27.5 6.25V10H2.5V6.25C2.5 5.58696 2.76339 4.95107 3.23223 4.48223C3.70107 4.01339 4.33696 3.75 5 3.75H25Z" fill="#FF4D6D"/>
</g>
<defs>
<clipPath id="clip0_27_124">
<rect width="30" height="30" fill="white"/>
</clipPath>
</defs>
</svg>
