<svg width="257" height="69" viewBox="0 0 257 69" fill="none" xmlns="http://www.w3.org/2000/svg">
<path d="M54.625 46C52.9191 46 51.2516 46.5058 49.8332 47.4536C48.4148 48.4013 47.3093 49.7483 46.6565 51.3244C46.0037 52.9004 45.8329 54.6346 46.1657 56.3077C46.4985 57.9807 47.32 59.5176 48.5262 60.7238C49.7324 61.93 51.2693 62.7515 52.9423 63.0843C54.6154 63.4171 56.3496 63.2463 57.9256 62.5935C59.5017 61.9407 60.8487 60.8352 61.7964 59.4168C62.7442 57.9984 63.25 56.3309 63.25 54.625C63.25 52.3375 62.3413 50.1437 60.7238 48.5262C59.1063 46.9087 56.9125 46 54.625 46ZM54.625 57.5C54.0564 57.5 53.5005 57.3314 53.0277 57.0155C52.5549 56.6996 52.1864 56.2506 51.9688 55.7252C51.7512 55.1999 51.6943 54.6218 51.8052 54.0641C51.9162 53.5064 52.19 52.9941 52.5921 52.5921C52.9941 52.19 53.5064 51.9162 54.0641 51.8052C54.6218 51.6943 55.1999 51.7512 55.7252 51.9688C56.2505 52.1864 56.6996 52.5549 57.0155 53.0277C57.3314 53.5005 57.5 54.0564 57.5 54.625C57.5 55.3875 57.1971 56.1188 56.6579 56.6579C56.1188 57.1971 55.3875 57.5 54.625 57.5ZM25.875 46C24.1691 46 22.5016 46.5058 21.0832 47.4536C19.6648 48.4013 18.5593 49.7483 17.9065 51.3244C17.2537 52.9004 17.0829 54.6346 17.4157 56.3077C17.7485 57.9807 18.57 59.5176 19.7762 60.7238C20.9824 61.93 22.5193 62.7515 24.1923 63.0843C25.8654 63.4171 27.5996 63.2463 29.1756 62.5935C30.7517 61.9407 32.0987 60.8352 33.0464 59.4168C33.9941 57.9984 34.5 56.3309 34.5 54.625C34.5 52.3375 33.5913 50.1437 31.9738 48.5262C30.3563 46.9087 28.1625 46 25.875 46ZM25.875 57.5C25.3064 57.5 24.7505 57.3314 24.2777 57.0155C23.8049 56.6996 23.4364 56.2506 23.2188 55.7252C23.0012 55.1999 22.9443 54.6218 23.0552 54.0641C23.1662 53.5064 23.44 52.9941 23.8421 52.5921C24.2441 52.19 24.7564 51.9162 25.3141 51.8052C25.8718 51.6943 26.4499 51.7512 26.9752 51.9688C27.5006 52.1864 27.9496 52.5549 28.2655 53.0277C28.5814 53.5005 28.75 54.0564 28.75 54.625C28.75 55.3875 28.4471 56.1188 27.9079 56.6579C27.3688 57.1971 26.6375 57.5 25.875 57.5ZM63.25 24.4375C63.2424 19.4836 61.2711 14.7348 57.7682 11.2318C54.2652 7.7289 49.5164 5.7576 44.5625 5.75H43.125C42.3625 5.75 41.6312 6.0529 41.0921 6.59207C40.5529 7.13123 40.25 7.8625 40.25 8.625V23H21.62L18.0262 13.3688C17.8207 12.8185 17.4514 12.3444 16.9683 12.0103C16.4851 11.6762 15.9112 11.4981 15.3237 11.5H8.625C7.8625 11.5 7.13123 11.8029 6.59207 12.3421C6.0529 12.8812 5.75 13.6125 5.75 14.375C5.75 15.1375 6.0529 15.8688 6.59207 16.4079C7.13123 16.9471 7.8625 17.25 8.625 17.25H13.34L16.9337 26.9387L18.4 30.8775V31.1362C19.7394 34.6929 22.1408 37.7513 25.2783 39.8961C28.4157 42.0409 32.1372 43.1682 35.9375 43.125H44.5625C47.0176 43.1288 49.4494 42.648 51.7184 41.7102C53.9874 40.7724 56.0489 39.396 57.785 37.66C59.521 35.924 60.8974 33.8624 61.8352 31.5934C62.773 29.3244 63.2538 26.8926 63.25 24.4375ZM53.705 33.58C52.5076 34.7855 51.0831 35.7417 49.5138 36.3931C47.9445 37.0445 46.2616 37.3782 44.5625 37.375H35.9375C33.3676 37.3829 30.8543 36.62 28.7224 35.1851C26.5904 33.7501 24.9376 31.7088 23.9775 29.325C23.965 29.2682 23.965 29.2093 23.9775 29.1525L23.7475 28.75H56.7525C56.1256 30.5749 55.0822 32.2286 53.705 33.58ZM46 23V11.5C48.9451 11.8072 51.695 13.1175 53.7888 15.2112C55.8825 17.305 57.1928 20.0549 57.5 23H46Z" fill="white"/>
<path d="M87.7822 22.9531V11.6592C87.7822 10.7705 87.7041 10.1943 87.5479 9.93066C87.3916 9.66699 87.084 9.48633 86.625 9.38867L85.7754 9.21289V8.56836H91.4736V9.22754L90.4775 9.44727C90.126 9.52539 89.9209 9.6377 89.8623 9.78418C89.7939 9.93066 89.7598 10.292 89.7598 10.8682V25.0918H95.1797C95.8926 25.0918 96.3662 24.5449 96.6006 23.4512C96.6689 23.1289 96.7031 22.8408 96.7031 22.5869H97.4648V26H85.8486V25.4141L86.6982 25.2383C87.2158 25.1504 87.5283 24.9551 87.6357 24.6523C87.7334 24.3496 87.7822 23.7832 87.7822 22.9531ZM100.087 9.35938C99.1104 9.35938 98.6172 9.01758 98.6074 8.33398C98.6074 7.81641 98.8613 7.45996 99.3691 7.26465C99.5449 7.20605 99.7158 7.17188 99.8818 7.16211C100.399 7.16211 100.81 7.34766 101.112 7.71875C101.425 8.08984 101.64 8.32422 101.757 8.42188C101.884 8.51953 102.069 8.56836 102.313 8.56836H107.484V9.21289L106.488 9.43262C106.137 9.51074 105.927 9.62305 105.858 9.76953C105.8 9.90625 105.771 10.2627 105.771 10.8389V23.7588C105.771 24.3838 105.814 24.7549 105.902 24.8721C105.99 24.9795 106.186 25.0674 106.488 25.1357L107.484 25.3555V26H101.801V25.3848L102.65 25.209C103.178 25.1016 103.5 24.8867 103.617 24.5645C103.734 24.2422 103.793 23.6953 103.793 22.9238V11.2344C103.773 10.209 103.524 9.61816 103.046 9.46191C102.899 9.41309 102.709 9.38867 102.475 9.38867L100.087 9.35938ZM111.19 12.9629C111.19 14.9551 111.635 15.9561 112.523 15.9658C112.68 15.9658 112.924 15.8193 113.256 15.5264C113.812 15.1162 114.281 14.8965 114.662 14.8672C115.287 14.8672 115.629 15.165 115.688 15.7607C115.717 16.1611 115.531 16.4736 115.131 16.6982C114.926 16.8057 114.711 16.8594 114.486 16.8594C113.373 16.8594 112.567 16.7764 112.069 16.6104C110.849 16.21 110.009 15.3896 109.55 14.1494C109.345 13.5732 109.242 12.9629 109.242 12.3184C109.242 10.4629 110.111 9.29102 111.85 8.80273C112.387 8.64648 112.973 8.56836 113.607 8.56836H124.711C125.785 8.56836 126.479 8.34375 126.791 7.89453C126.996 7.58203 127.099 7.11328 127.099 6.48828H127.714C128.095 7.76758 128.09 8.6123 127.699 9.02246C127.309 9.42285 126.659 9.65234 125.751 9.71094H120.214V22.9385C120.214 23.8369 120.277 24.4229 120.404 24.6963C120.531 24.96 120.829 25.1406 121.298 25.2383L122.147 25.3994V26H116.464V25.3848L117.475 25.165C117.836 25.0869 118.061 24.9746 118.148 24.8281C118.227 24.6621 118.266 24.3057 118.266 23.7588V9.71094H113.432C112.299 9.71094 111.591 10.3848 111.308 11.7324C111.229 12.1133 111.19 12.5234 111.19 12.9629ZM132.108 12.9629C132.108 14.9551 132.553 15.9561 133.441 15.9658C133.598 15.9658 133.842 15.8193 134.174 15.5264C134.73 15.1162 135.199 14.8965 135.58 14.8672C136.205 14.8672 136.547 15.165 136.605 15.7607C136.635 16.1611 136.449 16.4736 136.049 16.6982C135.844 16.8057 135.629 16.8594 135.404 16.8594C134.291 16.8594 133.485 16.7764 132.987 16.6104C131.767 16.21 130.927 15.3896 130.468 14.1494C130.263 13.5732 130.16 12.9629 130.16 12.3184C130.16 10.4629 131.029 9.29102 132.768 8.80273C133.305 8.64648 133.891 8.56836 134.525 8.56836H145.629C146.703 8.56836 147.396 8.34375 147.709 7.89453C147.914 7.58203 148.017 7.11328 148.017 6.48828H148.632C149.013 7.76758 149.008 8.6123 148.617 9.02246C148.227 9.42285 147.577 9.65234 146.669 9.71094H141.132V22.9385C141.132 23.8369 141.195 24.4229 141.322 24.6963C141.449 24.96 141.747 25.1406 142.216 25.2383L143.065 25.3994V26H137.382V25.3848L138.393 25.165C138.754 25.0869 138.979 24.9746 139.066 24.8281C139.145 24.6621 139.184 24.3057 139.184 23.7588V9.71094H134.35C133.217 9.71094 132.509 10.3848 132.226 11.7324C132.147 12.1133 132.108 12.5234 132.108 12.9629ZM152.821 22.9531V11.6592C152.821 10.7705 152.743 10.1943 152.587 9.93066C152.431 9.66699 152.123 9.48633 151.664 9.38867L150.814 9.21289V8.56836H156.513V9.22754L155.517 9.44727C155.165 9.52539 154.96 9.6377 154.901 9.78418C154.833 9.93066 154.799 10.292 154.799 10.8682V25.0918H160.219C160.932 25.0918 161.405 24.5449 161.64 23.4512C161.708 23.1289 161.742 22.8408 161.742 22.5869H162.504V26H150.888V25.4141L151.737 25.2383C152.255 25.1504 152.567 24.9551 152.675 24.6523C152.772 24.3496 152.821 23.7832 152.821 22.9531ZM173.388 25.0918C174.179 25.0918 174.652 24.4961 174.809 23.3047H175.395V26H163.734V25.3848L164.584 25.209C165.111 25.1016 165.434 24.8867 165.551 24.5645C165.668 24.2422 165.727 23.6953 165.727 22.9238V11.6445C165.727 10.7559 165.653 10.1797 165.507 9.91602C165.36 9.64258 165.058 9.45703 164.599 9.35938L163.734 9.18359V8.56836H174.545V11.2637H173.959C173.793 10.0918 173.319 9.49609 172.538 9.47656H167.689V16.9326H171.073C171.444 16.9326 171.664 16.874 171.732 16.7568C171.811 16.6396 171.894 16.3955 171.981 16.0244L172.128 15.3799H172.743V19.3643H172.128C171.972 18.5635 171.825 18.1094 171.688 18.002C171.562 17.8945 171.352 17.8408 171.059 17.8408H167.689V25.0918H173.388ZM182.719 9.62305C182.719 8.92969 183.212 8.57812 184.198 8.56836H193.998C194.896 8.56836 195.771 8.77832 196.62 9.19824C198.153 9.96973 198.925 11.2246 198.935 12.9629C198.935 14.291 198.349 15.4189 197.177 16.3467C196.659 16.7471 196.093 17.0645 195.478 17.2988C196.308 17.7969 197.04 18.5879 197.675 19.6719C198.886 21.7715 199.789 23.2363 200.385 24.0664C200.99 24.8965 201.591 25.3994 202.187 25.5752V26.3516C200.604 26.498 199.374 26.1953 198.495 25.4434C197.626 24.6914 196.747 23.4316 195.858 21.6641C194.97 19.8867 194.403 18.7979 194.159 18.3975C193.915 17.9971 193.681 17.7969 193.456 17.7969C193.241 17.7871 193.061 17.958 192.914 18.3096C192.777 18.6611 192.665 18.8809 192.577 18.9688C192.431 19.1055 192.196 19.1787 191.874 19.1885C191.562 19.1885 191.312 19.0469 191.127 18.7637C190.951 18.4805 190.863 18.2119 190.863 17.958C190.863 17.1279 191.571 16.7129 192.987 16.7129C193.28 16.7129 193.524 16.7227 193.72 16.7422C194.97 16.6836 195.839 16.0684 196.327 14.8965C196.542 14.3594 196.649 13.7783 196.649 13.1533C196.649 11.6494 196.103 10.5898 195.009 9.97461C194.423 9.65234 193.744 9.49121 192.973 9.49121H190.409V23.7881C190.409 24.4229 190.463 24.8037 190.57 24.9307C190.678 25.0479 190.888 25.1357 191.2 25.1943L192.196 25.3994V26H186.498V25.4287L187.348 25.2529C187.865 25.1455 188.173 24.9453 188.271 24.6523C188.378 24.3594 188.432 23.7979 188.432 22.9678V11.3662C188.236 10.0869 187.719 9.42773 186.879 9.38867C186.586 9.38867 186.2 9.5791 185.722 9.95996C185.067 10.4873 184.501 10.7559 184.022 10.7656C183.544 10.7656 183.207 10.6387 183.012 10.3848C182.816 10.1211 182.719 9.86719 182.719 9.62305ZM213.378 25.0918C214.169 25.0918 214.643 24.4961 214.799 23.3047H215.385V26H203.725V25.3848L204.574 25.209C205.102 25.1016 205.424 24.8867 205.541 24.5645C205.658 24.2422 205.717 23.6953 205.717 22.9238V11.6445C205.717 10.7559 205.644 10.1797 205.497 9.91602C205.351 9.64258 205.048 9.45703 204.589 9.35938L203.725 9.18359V8.56836H214.535V11.2637H213.949C213.783 10.0918 213.31 9.49609 212.528 9.47656H207.68V16.9326H211.063C211.435 16.9326 211.654 16.874 211.723 16.7568C211.801 16.6396 211.884 16.3955 211.972 16.0244L212.118 15.3799H212.733V19.3643H212.118C211.962 18.5635 211.815 18.1094 211.679 18.002C211.552 17.8945 211.342 17.8408 211.049 17.8408H207.68V25.0918H213.378ZM217.318 9.18359C217.318 8.61719 217.675 8.33398 218.388 8.33398C220.292 8.33398 221.645 8.80273 222.445 9.74023L231.879 22.6162V11.6592C231.879 10.7705 231.801 10.1943 231.645 9.93066C231.488 9.66699 231.181 9.48633 230.722 9.38867L229.872 9.21289V8.56836H234.838V9.24219L233.842 9.44727C233.5 9.51562 233.295 9.62305 233.227 9.76953C233.158 9.91602 233.124 10.2822 233.124 10.8682V26.4248H232.523L222.182 12.4795L222.167 23.7734C222.167 24.418 222.221 24.8037 222.328 24.9307C222.445 25.0479 222.655 25.1357 222.958 25.1943L223.954 25.3994V26H219.018V25.4287L219.867 25.2529C220.385 25.1455 220.692 24.9453 220.79 24.6523C220.897 24.3594 220.951 23.7979 220.951 22.9678V12.7432C220.941 10.7119 220.663 9.68652 220.116 9.66699C219.862 9.66699 219.521 9.76953 219.091 9.97461C218.661 10.1797 218.412 10.2822 218.344 10.2822C217.875 10.2822 217.558 10.0674 217.392 9.6377C217.343 9.49121 217.318 9.33984 217.318 9.18359ZM238.485 12.9629C238.485 14.9551 238.93 15.9561 239.818 15.9658C239.975 15.9658 240.219 15.8193 240.551 15.5264C241.107 15.1162 241.576 14.8965 241.957 14.8672C242.582 14.8672 242.924 15.165 242.982 15.7607C243.012 16.1611 242.826 16.4736 242.426 16.6982C242.221 16.8057 242.006 16.8594 241.781 16.8594C240.668 16.8594 239.862 16.7764 239.364 16.6104C238.144 16.21 237.304 15.3896 236.845 14.1494C236.64 13.5732 236.537 12.9629 236.537 12.3184C236.537 10.4629 237.406 9.29102 239.145 8.80273C239.682 8.64648 240.268 8.56836 240.902 8.56836H252.006C253.08 8.56836 253.773 8.34375 254.086 7.89453C254.291 7.58203 254.394 7.11328 254.394 6.48828H255.009C255.39 7.76758 255.385 8.6123 254.994 9.02246C254.604 9.42285 253.954 9.65234 253.046 9.71094H247.509V22.9385C247.509 23.8369 247.572 24.4229 247.699 24.6963C247.826 24.96 248.124 25.1406 248.593 25.2383L249.442 25.3994V26H243.759V25.3848L244.77 25.165C245.131 25.0869 245.355 24.9746 245.443 24.8281C245.521 24.6621 245.561 24.3057 245.561 23.7588V9.71094H240.727C239.594 9.71094 238.886 10.3848 238.603 11.7324C238.524 12.1133 238.485 12.5234 238.485 12.9629Z" fill="white"/>
<path d="M93.9593 51.05C93.9593 52.22 93.3493 53 92.1293 53.39C92.8793 53.58 93.4843 53.905 93.9443 54.365C94.4143 54.815 94.6493 55.395 94.6493 56.105C94.6493 57.025 94.2493 57.76 93.4493 58.31C92.6593 58.86 91.5893 59.135 90.2393 59.135C88.8893 59.135 87.9243 58.965 87.3443 58.625C86.7743 58.285 86.4893 57.78 86.4893 57.11L86.5043 49.49C86.5043 49.12 86.4293 48.84 86.2793 48.65C87.2893 48.3 88.4643 48.125 89.8043 48.125C91.1443 48.125 92.1693 48.395 92.8793 48.935C93.5993 49.475 93.9593 50.18 93.9593 51.05ZM90.1193 53.075C90.9093 53.075 91.5193 52.9 91.9493 52.55C92.3893 52.19 92.6093 51.705 92.6093 51.095C92.6093 50.485 92.3743 50 91.9043 49.64C91.4343 49.27 90.7843 49.085 89.9543 49.085C89.1243 49.085 88.4043 49.165 87.7943 49.325L87.7643 53.075H90.0593C90.0793 53.075 90.0993 53.075 90.1193 53.075ZM90.1193 58.19C91.1493 58.19 91.9343 58.005 92.4743 57.635C93.0243 57.265 93.2993 56.76 93.2993 56.12C93.2993 55.47 93.0243 54.955 92.4743 54.575C91.9243 54.195 91.1343 54.005 90.1043 54.005H87.7643L87.7493 57.095C87.7493 57.825 88.5393 58.19 90.1193 58.19ZM97.6533 57.08C97.6533 57.8 98.0433 58.16 98.8233 58.16C99.6133 58.16 100.263 57.815 100.773 57.125V55.34C99.7133 55.4 98.9283 55.59 98.4183 55.91C97.9083 56.22 97.6533 56.61 97.6533 57.08ZM102.018 53.66V57.65C102.018 58.18 102.263 58.48 102.753 58.55C102.563 58.94 102.248 59.135 101.808 59.135C101.178 59.135 100.833 58.73 100.773 57.92C100.193 58.73 99.4133 59.135 98.4333 59.135C97.8133 59.135 97.3033 58.965 96.9033 58.625C96.5033 58.285 96.3033 57.815 96.3033 57.215C96.3033 56.475 96.6733 55.88 97.4133 55.43C98.1633 54.97 99.2833 54.72 100.773 54.68V53.78C100.773 53.16 100.663 52.705 100.443 52.415C100.223 52.115 99.8733 51.965 99.3933 51.965C98.9233 51.965 98.5683 52.065 98.3283 52.265C98.0883 52.455 97.9683 52.675 97.9683 52.925C97.9683 53.165 98.0383 53.36 98.1783 53.51C97.9683 53.67 97.7333 53.75 97.4733 53.75C97.2233 53.75 97.0183 53.68 96.8583 53.54C96.6983 53.4 96.6183 53.2 96.6183 52.94C96.6183 52.47 96.8883 52.07 97.4283 51.74C97.9683 51.41 98.6333 51.245 99.4233 51.245C100.213 51.245 100.843 51.46 101.313 51.89C101.783 52.31 102.018 52.9 102.018 53.66ZM107.723 58.145C108.473 58.145 109.068 57.87 109.508 57.32C109.948 56.77 110.168 56.04 110.168 55.13C110.168 54.22 109.958 53.52 109.538 53.03C109.118 52.53 108.598 52.28 107.978 52.28C107.078 52.28 106.408 52.73 105.968 53.63L105.953 56.57C105.953 57.62 106.543 58.145 107.723 58.145ZM105.968 52.385C106.518 51.625 107.248 51.245 108.158 51.245C109.078 51.245 109.858 51.575 110.498 52.235C111.138 52.885 111.458 53.82 111.458 55.04C111.458 56.25 111.093 57.23 110.363 57.98C109.633 58.74 108.763 59.12 107.753 59.12C106.743 59.12 105.983 58.9 105.473 58.46C104.963 58.01 104.708 57.38 104.708 56.57L104.723 48.665C104.723 48.365 104.598 48.165 104.348 48.065C104.558 47.755 104.823 47.6 105.143 47.6C105.703 47.6 105.983 47.945 105.983 48.635L105.968 52.385ZM118.466 52.55C118.536 52.36 118.571 52.17 118.571 51.98C118.571 51.79 118.501 51.62 118.361 51.47C118.581 51.32 118.826 51.245 119.096 51.245C119.366 51.245 119.586 51.38 119.756 51.65C119.836 51.79 119.876 51.95 119.876 52.13C119.876 52.3 119.831 52.495 119.741 52.715L116.621 60.845C116.131 62.095 115.461 62.72 114.611 62.72C114.291 62.72 114.041 62.64 113.861 62.48C113.681 62.32 113.591 62.115 113.591 61.865C113.591 61.625 113.671 61.43 113.831 61.28C114.011 61.47 114.231 61.565 114.491 61.565C114.751 61.565 114.956 61.495 115.106 61.355C115.266 61.215 115.411 60.965 115.541 60.605L116.081 59.135C116.071 59.135 116.056 59.135 116.036 59.135C115.836 59.135 115.651 59.07 115.481 58.94C115.311 58.8 115.186 58.605 115.106 58.355L113.036 52.355C112.936 51.985 112.781 51.75 112.571 51.65C112.741 51.38 113.006 51.245 113.366 51.245C113.796 51.245 114.106 51.57 114.296 52.22L116.351 58.385L118.466 52.55ZM128.12 57.995H131.15C131.72 57.995 132.145 57.785 132.425 57.365C132.555 57.415 132.66 57.505 132.74 57.635C132.82 57.755 132.86 57.88 132.86 58.01C132.86 58.67 132.31 59 131.21 59H128.06C127.29 59 126.72 58.845 126.35 58.535C125.98 58.225 125.795 57.72 125.795 57.02V49.385C125.795 49.085 125.67 48.885 125.42 48.785C125.66 48.425 126.06 48.245 126.62 48.245H131.36C132.36 48.245 132.86 48.505 132.86 49.025C132.86 49.335 132.715 49.54 132.425 49.64C132.145 49.39 131.72 49.265 131.15 49.265H127.055V52.925H130.22C130.77 52.925 131.16 52.97 131.39 53.06C131.62 53.15 131.735 53.325 131.735 53.585C131.735 53.845 131.615 54.035 131.375 54.155C131.105 54.015 130.68 53.945 130.1 53.945H127.055V56.975C127.055 57.335 127.135 57.595 127.295 57.755C127.465 57.915 127.74 57.995 128.12 57.995ZM139.77 54.035C139.77 53.465 139.62 53.015 139.32 52.685C139.02 52.345 138.63 52.175 138.15 52.175C137.48 52.175 136.92 52.455 136.47 53.015C136.02 53.565 135.795 54.32 135.795 55.28C135.795 56.23 136.015 56.95 136.455 57.44C136.895 57.93 137.445 58.175 138.105 58.175C138.765 58.175 139.32 57.87 139.77 57.26V54.035ZM141.03 51.245V61.655C141.03 61.955 141.155 62.15 141.405 62.24C141.195 62.56 140.93 62.72 140.61 62.72C140.05 62.72 139.77 62.365 139.77 61.655V58.295C139.24 58.855 138.56 59.135 137.73 59.135C136.91 59.135 136.16 58.795 135.48 58.115C134.8 57.435 134.46 56.505 134.46 55.325C134.46 54.145 134.8 53.17 135.48 52.4C136.16 51.63 136.975 51.245 137.925 51.245C138.715 51.245 139.335 51.545 139.785 52.145C139.855 51.545 140.155 51.245 140.685 51.245H141.03ZM149.826 52.295V58.07C149.826 58.35 149.956 58.545 150.216 58.655C150.006 58.975 149.741 59.135 149.421 59.135C148.871 59.135 148.596 58.785 148.596 58.085V57.695C148.036 58.655 147.221 59.135 146.151 59.135C144.461 59.135 143.616 58.275 143.616 56.555V52.325C143.616 52.035 143.491 51.835 143.241 51.725C143.431 51.405 143.691 51.245 144.021 51.245C144.581 51.245 144.861 51.595 144.861 52.295V56.48C144.861 57.54 145.381 58.07 146.421 58.07C146.901 58.07 147.331 57.925 147.711 57.635C148.101 57.345 148.396 56.94 148.596 56.42V52.325C148.596 52.035 148.466 51.835 148.206 51.725C148.436 51.405 148.701 51.245 149.001 51.245C149.551 51.245 149.826 51.595 149.826 52.295ZM153.183 48.05C153.443 48.05 153.653 48.125 153.813 48.275C153.983 48.415 154.068 48.615 154.068 48.875C154.068 49.125 153.958 49.355 153.738 49.565C153.528 49.765 153.288 49.865 153.018 49.865C152.748 49.865 152.528 49.785 152.358 49.625C152.188 49.465 152.103 49.255 152.103 48.995C152.103 48.735 152.218 48.515 152.448 48.335C152.688 48.145 152.933 48.05 153.183 48.05ZM153.768 52.295V58.07C153.768 58.36 153.893 58.555 154.143 58.655C153.933 58.975 153.673 59.135 153.363 59.135C152.803 59.135 152.523 58.785 152.523 58.085V52.325C152.523 52.035 152.398 51.835 152.148 51.725C152.338 51.405 152.598 51.245 152.928 51.245C153.488 51.245 153.768 51.595 153.768 52.295ZM159.687 58.115C160.297 58.115 160.812 57.855 161.232 57.335C161.662 56.805 161.877 56.09 161.877 55.19C161.877 54.29 161.662 53.58 161.232 53.06C160.812 52.54 160.297 52.28 159.687 52.28C158.827 52.28 158.177 52.69 157.737 53.51V57.08C157.987 57.46 158.267 57.73 158.577 57.89C158.887 58.04 159.257 58.115 159.687 58.115ZM157.737 52.295V52.31C158.257 51.6 158.967 51.245 159.867 51.245C160.777 51.245 161.552 51.59 162.192 52.28C162.842 52.96 163.167 53.925 163.167 55.175C163.167 56.425 162.827 57.395 162.147 58.085C161.477 58.775 160.702 59.12 159.822 59.12C158.952 59.12 158.257 58.83 157.737 58.25V61.655C157.737 61.955 157.862 62.15 158.112 62.24C157.902 62.56 157.642 62.72 157.332 62.72C156.772 62.72 156.492 62.365 156.492 61.655V52.325C156.492 52.035 156.367 51.835 156.117 51.725C156.307 51.405 156.567 51.245 156.897 51.245C157.457 51.245 157.737 51.595 157.737 52.295ZM176.398 53.825V58.07C176.398 58.35 176.523 58.545 176.773 58.655C176.593 58.975 176.333 59.135 175.993 59.135C175.433 59.135 175.153 58.785 175.153 58.085V53.915C175.153 52.865 174.693 52.34 173.773 52.34C173.273 52.34 172.798 52.545 172.348 52.955C171.898 53.365 171.588 53.915 171.418 54.605V58.07C171.418 58.35 171.548 58.545 171.808 58.655C171.598 58.975 171.333 59.135 171.013 59.135C170.463 59.135 170.188 58.785 170.188 58.085V53.915C170.188 52.865 169.728 52.34 168.808 52.34C168.308 52.34 167.833 52.54 167.383 52.94C166.933 53.34 166.623 53.875 166.453 54.545V58.07C166.453 58.36 166.578 58.555 166.828 58.655C166.618 58.975 166.358 59.135 166.048 59.135C165.488 59.135 165.208 58.785 165.208 58.085V52.325C165.208 52.035 165.083 51.835 164.833 51.725C165.023 51.405 165.283 51.245 165.613 51.245C166.173 51.245 166.453 51.595 166.453 52.295V53.075C166.713 52.535 167.083 52.095 167.563 51.755C168.043 51.415 168.583 51.245 169.183 51.245C169.783 51.245 170.273 51.41 170.653 51.74C171.043 52.07 171.283 52.565 171.373 53.225C171.603 52.655 171.968 52.185 172.468 51.815C172.968 51.435 173.543 51.245 174.193 51.245C174.853 51.245 175.383 51.465 175.783 51.905C176.193 52.335 176.398 52.975 176.398 53.825ZM182.634 54.38C183.044 54.35 183.249 54.115 183.249 53.675C183.249 53.225 183.119 52.855 182.859 52.565C182.609 52.265 182.254 52.115 181.794 52.115C181.334 52.115 180.914 52.335 180.534 52.775C180.154 53.215 179.919 53.825 179.829 54.605L182.634 54.38ZM179.799 55.25C179.799 56.23 180.009 56.955 180.429 57.425C180.859 57.895 181.469 58.13 182.259 58.13C183.049 58.13 183.704 57.87 184.224 57.35C184.374 57.43 184.449 57.565 184.449 57.755C184.449 58.085 184.209 58.4 183.729 58.7C183.249 58.99 182.679 59.135 182.019 59.135C180.989 59.135 180.144 58.81 179.484 58.16C178.824 57.51 178.494 56.6 178.494 55.43C178.494 54.25 178.849 53.26 179.559 52.46C180.279 51.65 181.104 51.245 182.034 51.245C182.774 51.245 183.374 51.5 183.834 52.01C184.304 52.52 184.539 53.1 184.539 53.75C184.539 54.22 184.409 54.57 184.149 54.8C183.899 55.02 183.489 55.14 182.919 55.16L179.799 55.25ZM192.673 53.825V58.07C192.673 58.35 192.803 58.545 193.063 58.655C192.853 58.975 192.588 59.135 192.268 59.135C191.718 59.135 191.443 58.785 191.443 58.085V53.915C191.443 52.865 190.983 52.34 190.063 52.34C189.563 52.34 189.088 52.54 188.638 52.94C188.188 53.34 187.878 53.875 187.708 54.545V58.07C187.708 58.36 187.833 58.555 188.083 58.655C187.873 58.975 187.613 59.135 187.303 59.135C186.743 59.135 186.463 58.785 186.463 58.085V52.325C186.463 52.035 186.338 51.835 186.088 51.725C186.278 51.405 186.538 51.245 186.868 51.245C187.428 51.245 187.708 51.595 187.708 52.295V53.075C187.968 52.535 188.338 52.095 188.818 51.755C189.298 51.415 189.858 51.245 190.498 51.245C191.148 51.245 191.673 51.465 192.073 51.905C192.473 52.335 192.673 52.975 192.673 53.825ZM196.629 52.34V57.095C196.629 57.465 196.699 57.73 196.839 57.89C196.989 58.05 197.229 58.13 197.559 58.13C198.179 58.13 198.764 57.865 199.314 57.335C199.484 57.425 199.569 57.57 199.569 57.77C199.569 58.11 199.349 58.425 198.909 58.715C198.469 58.995 197.929 59.135 197.289 59.135C196.009 59.135 195.369 58.47 195.369 57.14V52.34C194.559 52.31 194.154 52.115 194.154 51.755C194.154 51.565 194.214 51.42 194.334 51.32C194.684 51.37 194.954 51.395 195.144 51.395H195.369V50.18C195.369 49.9 195.244 49.7 194.994 49.58C195.194 49.27 195.454 49.115 195.774 49.115C196.344 49.115 196.629 49.465 196.629 50.165V51.395H199.149C199.189 51.465 199.209 51.55 199.209 51.65C199.209 52.11 198.419 52.34 196.839 52.34H196.629Z" fill="white"/>
</svg>
